<svg id="Layer_1" data-name="Layer 1" xmlns="http://www.w3.org/2000/svg" viewBox="0 0 39.56 39.56"><defs><style>.cls-1{fill:none;stroke:#fff;stroke-miterlimit:10;stroke-width:1.5px;}.cls-2{fill:#fff;}</style></defs><rect class="cls-1" x="0.75" y="0.75" width="38.06" height="38.06" rx="19.03"/><path class="cls-2" d="M717.19,726.06a3.76,3.76,0,0,0,1.51-.66,3.94,3.94,0,0,0,.94-1,3.88,3.88,0,0,0,.59-2.13,3.51,3.51,0,0,0-.52-2,3,3,0,0,0-1.54-1.18,3,3,0,0,0,1-.76,3,3,0,0,0,.62-2,3.44,3.44,0,0,0-.61-2,4.09,4.09,0,0,0-3.46-1.42H709.3v13.33h6A9.28,9.28,0,0,0,717.19,726.06ZM712,715.23h2.9a4.92,4.92,0,0,1,1.57.21,1.19,1.19,0,0,1,.72,1.23,1.26,1.26,0,0,1-.54,1.17,2.68,2.68,0,0,1-1.41.33H712Zm0,8.7v-3.55h3.28a3.33,3.33,0,0,1,1.33.22,1.43,1.43,0,0,1,.85,1.43,1.69,1.69,0,0,1-.87,1.67,3.31,3.31,0,0,1-1.35.23Z" transform="translate(-700.25 -699.97)"/><path class="cls-2" d="M722.49,725.37a5.36,5.36,0,0,0,3.47,1.21,4.78,4.78,0,0,0,3.71-1.44,3.17,3.17,0,0,0,1-1.78H728a2.09,2.09,0,0,1-.53.68,2.19,2.19,0,0,1-1.43.45,2.59,2.59,0,0,1-1.42-.37,2.36,2.36,0,0,1-1-2.08h7.18a12.63,12.63,0,0,0-.09-1.95,4.83,4.83,0,0,0-.78-2,4.07,4.07,0,0,0-1.71-1.46,5.51,5.51,0,0,0-2.31-.46,4.77,4.77,0,0,0-3.53,1.37,5.35,5.35,0,0,0-1.35,3.92A4.8,4.8,0,0,0,722.49,725.37Zm1.84-6.55a2,2,0,0,1,1.54-.57,2.28,2.28,0,0,1,1.53.53,2.15,2.15,0,0,1,.68,1.56h-4.44A2.72,2.72,0,0,1,724.33,718.82Z" transform="translate(-700.25 -699.97)"/><rect class="cls-2" x="22.55" y="13.72" width="5.79" height="1.34"/></svg>