<svg width="41" height="40" viewBox="0 0 41 40" fill="none" xmlns="http://www.w3.org/2000/svg">
<path d="M20.62 38.81C15.5809 38.81 10.7482 36.8082 7.18496 33.245C3.62177 29.6818 1.62002 24.8491 1.62002 19.81V19.81C1.62002 14.7709 3.62177 9.93815 7.18496 6.37495C10.7482 2.81176 15.5809 0.810013 20.62 0.810013V0.810013C25.6591 0.810013 30.4919 2.81176 34.0551 6.37495C37.6183 9.93815 39.62 14.7709 39.62 19.81V19.81C39.62 24.8491 37.6183 29.6818 34.0551 33.245C30.4919 36.8082 25.6591 38.81 20.62 38.81V38.81Z" stroke="white" stroke-width="1.5" stroke-miterlimit="10"/>
<path d="M20.62 11.22C23.41 11.22 23.74 11.22 24.84 11.28C25.5021 11.2921 26.1577 11.4138 26.7801 11.64C27.2358 11.8132 27.6497 12.0809 27.9944 12.4256C28.3391 12.7703 28.6069 13.1843 28.7801 13.64C29.0063 14.2624 29.1279 14.9179 29.14 15.58C29.14 16.68 29.2 17.01 29.2 19.8C29.2 22.59 29.2 22.91 29.14 24.01C29.1279 24.6721 29.0063 25.3277 28.7801 25.95C28.6128 26.4032 28.3462 26.8131 28 27.15C27.6623 27.4951 27.2525 27.7615 26.7999 27.93C26.1776 28.1562 25.5221 28.2779 24.86 28.29C23.76 28.34 23.43 28.35 20.64 28.35C17.85 28.35 17.53 28.35 16.43 28.29C15.7679 28.2779 15.1124 28.1562 14.49 27.93C14.0343 27.7569 13.6204 27.4891 13.2757 27.1444C12.9309 26.7996 12.6631 26.3858 12.49 25.93C12.2638 25.3076 12.1421 24.6521 12.13 23.99C12.08 22.89 12.07 22.56 12.07 19.78C12.07 17 12.07 16.66 12.13 15.56C12.1421 14.8979 12.2638 14.2424 12.49 13.62C12.6585 13.1675 12.9249 12.7577 13.27 12.42C13.6069 12.0738 14.0169 11.8073 14.47 11.64C15.0924 11.4138 15.748 11.2921 16.4101 11.28C17.5101 11.28 17.84 11.22 20.62 11.22ZM20.62 9.33998C17.79 9.33998 17.43 9.33999 16.32 9.40999C15.4554 9.42432 14.5998 9.58671 13.7901 9.89003C13.1052 10.1615 12.4845 10.573 11.9679 11.0982C11.4513 11.6234 11.0502 12.2508 10.7901 12.94C10.483 13.7525 10.3171 14.6116 10.2999 15.48C10.2999 16.59 10.24 16.94 10.24 19.78C10.24 22.62 10.2399 22.97 10.2999 24.08C10.3169 24.9452 10.4828 25.801 10.7901 26.61C11.056 27.29 11.4598 27.9076 11.9761 28.4239C12.4924 28.9402 13.11 29.3441 13.7901 29.61C14.599 29.9173 15.4548 30.0831 16.32 30.1C17.43 30.15 17.79 30.16 20.62 30.16C23.45 30.16 23.8099 30.16 24.9199 30.1C25.7884 30.0828 26.6475 29.9171 27.46 29.61C28.14 29.3441 28.7576 28.9402 29.2739 28.4239C29.7903 27.9076 30.194 27.29 30.46 26.61C30.7633 25.8003 30.9256 24.9446 30.94 24.08C31 22.97 31.01 22.61 31.01 19.78C31.01 16.95 31.01 16.59 30.94 15.48C30.9256 14.6122 30.7633 13.7532 30.46 12.94C30.1999 12.2508 29.7987 11.6234 29.2821 11.0982C28.7655 10.573 28.1448 10.1615 27.46 9.89003C26.6468 9.58673 25.7877 9.42436 24.9199 9.40999C23.8099 9.40999 23.46 9.33998 20.62 9.33998Z" fill="white"/>
<path d="M20.62 14.42C19.5599 14.42 18.5235 14.7344 17.6421 15.3233C16.7606 15.9123 16.0736 16.7494 15.6679 17.7288C15.2623 18.7082 15.1561 19.786 15.3629 20.8257C15.5697 21.8654 16.0802 22.8205 16.8298 23.5701C17.5794 24.3197 18.5346 24.8302 19.5743 25.037C20.6141 25.2438 21.6917 25.1377 22.6711 24.732C23.6505 24.3263 24.4877 23.6393 25.0766 22.7579C25.6656 21.8764 25.98 20.8401 25.98 19.78C25.98 18.3584 25.4152 16.9951 24.41 15.9899C23.4048 14.9847 22.0415 14.42 20.62 14.42ZM20.62 23.26C19.9317 23.26 19.2589 23.0559 18.6866 22.6735C18.1143 22.2912 17.6683 21.7477 17.4049 21.1118C17.1415 20.4759 17.0725 19.7761 17.2068 19.1011C17.341 18.426 17.6726 17.806 18.1593 17.3193C18.646 16.8326 19.266 16.5012 19.941 16.3669C20.6161 16.2326 21.3158 16.3015 21.9516 16.5649C22.5875 16.8283 23.1311 17.2744 23.5135 17.8466C23.8959 18.4189 24.1 19.0917 24.1 19.78C24.1 20.7029 23.7333 21.5881 23.0807 22.2407C22.428 22.8934 21.5429 23.26 20.62 23.26" fill="white"/>
<path d="M27.48 14.21C27.48 14.4572 27.4066 14.6989 27.2693 14.9045C27.1319 15.1101 26.9368 15.2703 26.7084 15.3649C26.48 15.4595 26.2286 15.4842 25.9861 15.436C25.7436 15.3878 25.5209 15.2687 25.3461 15.0939C25.1713 14.9191 25.0523 14.6963 25.004 14.4539C24.9558 14.2114 24.9805 13.9601 25.0751 13.7316C25.1697 13.5032 25.33 13.308 25.5355 13.1707C25.7411 13.0333 25.9828 12.96 26.23 12.96C26.5615 12.96 26.8795 13.0917 27.1139 13.3261C27.3483 13.5605 27.48 13.8785 27.48 14.21Z" fill="white"/>
</svg>
