<svg width="40" height="40" viewBox="0 0 40 40" fill="none" xmlns="http://www.w3.org/2000/svg">
<path d="M39.06 20.03C39.06 9.52002 30.54 1 20.03 1C9.52002 1 1 9.52002 1 20.03C1 30.54 9.52002 39.06 20.03 39.06C30.54 39.06 39.06 30.54 39.06 20.03Z" stroke="white" stroke-width="1.5" stroke-miterlimit="10"/>
<path d="M15.34 15.79H11.4V28.51H15.34V15.79Z" fill="white"/>
<path d="M21.64 21.83C21.64 20.05 22.4601 18.98 24.0401 18.98C25.6201 18.98 26.18 19.98 26.18 21.83V28.51H30.1V20.46C30.1 17.05 28.17 15.4001 25.47 15.4001C24.7044 15.3884 23.9489 15.5757 23.2775 15.9439C22.6061 16.312 22.0419 16.8482 21.64 17.5V15.79H17.86V28.51H21.64V21.83Z" fill="white"/>
<path d="M13.36 14.12C13.8261 14.124 14.2827 13.9893 14.672 13.733C15.0613 13.4768 15.3657 13.1106 15.5463 12.681C15.7269 12.2513 15.7758 11.7777 15.6866 11.3203C15.5973 10.8628 15.374 10.4422 15.0452 10.1119C14.7164 9.78168 14.2968 9.55669 13.8398 9.46552C13.3827 9.37434 12.9088 9.42112 12.4784 9.59992C12.048 9.77872 11.6806 10.0815 11.4226 10.4697C11.1647 10.8579 11.0281 11.314 11.0301 11.78C11.0287 12.0869 11.088 12.3909 11.2045 12.6747C11.321 12.9586 11.4924 13.2166 11.7089 13.434C11.9254 13.6514 12.1828 13.824 12.4661 13.9417C12.7494 14.0594 13.0532 14.12 13.36 14.12V14.12Z" fill="white"/>
</svg>
