<svg width="378" height="97" viewBox="0 0 378 97" fill="none" xmlns="http://www.w3.org/2000/svg">
<rect width="378" height="97" rx="48.5" fill="black"/>
<path d="M67.9 31V44.15H54.4V31H44.5V66H54.4V52.35H67.9V66H77.8V31H67.9ZM97.9332 66.45C106.883 66.45 113.233 60.6 113.233 52.4C113.233 44.25 106.883 38.45 97.9332 38.45C89.0832 38.45 82.6332 44.25 82.6332 52.4C82.6332 60.6 89.0832 66.45 97.9332 66.45ZM97.9332 58.9C94.7332 58.9 92.2332 56.55 92.2332 52.4C92.2332 48.3 94.7332 46 97.9332 46C101.183 46 103.633 48.3 103.633 52.4C103.633 56.55 101.183 58.9 97.9332 58.9ZM136.634 38.9V51.95C136.634 56.5 134.334 58.35 131.534 58.35C128.684 58.35 127.034 56.7 127.034 52.5V38.9H117.534V54.05C117.534 62.65 122.384 66.45 129.034 66.45C132.134 66.45 135.034 65.35 137.084 63.1V66H146.134V38.9H136.634ZM162.103 66.45C170.903 66.45 175.503 62.55 175.503 57.55C175.503 46.8 159.553 50.85 159.553 47.1C159.553 46.1 160.703 45.2 163.903 45.2C166.303 45.2 169.003 45.7 171.703 47.2L174.553 40.75C171.853 39.25 167.653 38.45 163.853 38.45C155.353 38.45 150.653 42.35 150.653 47.45C150.653 58.3 166.653 54.15 166.653 57.8C166.653 58.95 165.603 59.65 162.403 59.65C159.103 59.65 155.453 58.7 152.953 57.15L150.103 63.65C152.753 65.3 157.503 66.45 162.103 66.45ZM189.447 66.45C198.247 66.45 202.847 62.55 202.847 57.55C202.847 46.8 186.897 50.85 186.897 47.1C186.897 46.1 188.047 45.2 191.247 45.2C193.647 45.2 196.347 45.7 199.047 47.2L201.897 40.75C199.197 39.25 194.997 38.45 191.197 38.45C182.697 38.45 177.997 42.35 177.997 47.45C177.997 58.3 193.997 54.15 193.997 57.8C193.997 58.95 192.947 59.65 189.747 59.65C186.447 59.65 182.797 58.7 180.297 57.15L177.447 63.65C180.097 65.3 184.847 66.45 189.447 66.45ZM234.641 52.5C234.641 43.55 228.141 38.45 220.141 38.45C211.591 38.45 205.241 44.25 205.241 52.4C205.241 60.5 211.491 66.45 221.141 66.45C226.291 66.45 230.091 64.95 232.691 62.05L227.691 56.85C225.841 58.45 224.091 59.2 221.441 59.2C217.941 59.2 215.591 57.6 214.791 54.85H234.491C234.541 54.1 234.641 53.2 234.641 52.5ZM220.191 45.2C223.141 45.2 225.241 47 225.741 49.85H214.641C215.191 47 217.241 45.2 220.191 45.2ZM274.321 38.45C270.421 38.45 267.071 40 264.921 42.7C263.021 39.8 259.871 38.45 256.171 38.45C252.971 38.45 250.121 39.55 248.071 41.75V38.9H239.021V66H248.521V52.55C248.521 48.35 250.521 46.5 253.321 46.5C255.871 46.5 257.421 48.15 257.421 52.05V66H266.921V52.55C266.921 48.35 268.921 46.5 271.671 46.5C274.171 46.5 275.771 48.15 275.771 52.05V66H285.271V50.5C285.271 42.1 280.621 38.45 274.321 38.45ZM295.267 66.45C298.517 66.45 300.967 64.1 300.967 60.8C300.967 57.4 298.517 55.2 295.267 55.2C292.067 55.2 289.567 57.4 289.567 60.8C289.567 64.1 292.067 66.45 295.267 66.45Z" fill="#EBFF05"/>
<path d="M333.027 61.65V66H307.627V31H332.327V35.35H312.627V46.1H330.177V50.35H312.627V61.65H333.027Z" fill="white"/>
</svg>
