<svg width="61" height="15" viewBox="0 0 61 15" fill="none" xmlns="http://www.w3.org/2000/svg">
<path d="M10.0246 0.655736V6.04508H4.4918V0.655736H0.434426V15H4.4918V9.40574H10.0246V15H14.082V0.655736H10.0246ZM20.9603 11.8648V9.2418H27.3333V6.20902H20.9603V3.79098H28.1939V0.655736H16.9439V15H28.4603V11.8648H20.9603ZM40.343 15H45.0561L38.8881 7.0082L44.7488 0.655736H40.2815L34.7283 6.61885V0.655736H30.7119V15H34.7283V11.4139L36.2447 9.79508L40.343 15Z" fill="white"/>
<path d="M55.7519 15H60.465L54.297 7.0082L60.1576 0.655736H55.6904L50.1371 6.61885V0.655736H46.1207V15H50.1371V11.4139L51.6535 9.79508L55.7519 15Z" fill="#FFD600"/>
</svg>
